<?xml version="1.0" encoding="UTF-8"?>
<svg id="_Слой_2" data-name="Слой 2" xmlns="http://www.w3.org/2000/svg" viewBox="0 0 56.52 56.68">
  <defs>
    <style>
      .cls-1 {
        fill: #3b4f6b;
        stroke-width: 0px;
      }
    </style>
  </defs>
  <g id="_Слой_1-2" data-name="Слой 1">
    <path class="cls-1" d="m44.52,32.68c-3.79,0-7.17,1.77-9.37,4.52l-11.55-5.77c.25-.97.4-1.97.4-3.01s-.15-2.08-.41-3.05l11.59-5.85c2.2,2.73,5.56,4.48,9.34,4.48,6.63,0,12-5.37,12-12S51.15,0,44.52,0s-12,5.37-12,12c0,1.06.15,2.08.41,3.05l-11.58,5.85c-2.2-2.73-5.57-4.48-9.35-4.48-6.63,0-12,5.37-12,12s5.37,12,12,12c3.8,0,7.17-1.77,9.37-4.52l11.55,5.77c-.25.97-.4,1.97-.4,3.01,0,6.63,5.37,12,12,12s12-5.37,12-12-5.37-12-12-12Zm-7-20.68c0-3.86,3.14-7,7-7s7,3.14,7,7-3.14,7-7,7c-1.81,0-3.45-.7-4.7-1.83-1.24-1.13-2.08-2.69-2.26-4.45-.03-.24-.04-.48-.04-.72Zm-25.52,23.42c-3.86,0-7-3.14-7-7s3.14-7,7-7c1.81,0,3.46.7,4.7,1.83,1.24,1.13,2.08,2.69,2.26,4.45.03.24.04.48.04.72s-.01.46-.03.69c-.18,1.76-1.01,3.33-2.25,4.46-1.25,1.15-2.9,1.85-4.72,1.85Zm32.52,16.26c-3.86,0-7-3.14-7-7,0-.23.01-.46.04-.69.17-1.76,1-3.33,2.24-4.46,1.25-1.15,2.9-1.85,4.72-1.85,3.86,0,7,3.14,7,7s-3.14,7-7,7Z"/>
  </g>
</svg>